<svg id="cancel-search" width="48" height="48" viewBox="0 0 48 48" xmlns="http://www.w3.org/2000/svg">
  <title>cancel</title>
  <g fill="#D8D8D8" fill-rule="evenodd">
    <path d="M24 19.757l-8.485-8.485c-.784-.783-2.047-.782-2.827 0l-1.417 1.416c-.777.777-.78 2.046.002 2.827L19.757 24l-8.485 8.485c-.783.784-.782 2.047 0 2.827l1.416 1.417c.777.777 2.046.78 2.827-.002L24 28.243l8.485 8.485c.784.783 2.047.782 2.827 0l1.417-1.416c.777-.777.78-2.046-.002-2.827L28.243 24l8.485-8.485c.783-.784.782-2.047 0-2.827l-1.416-1.417c-.777-.777-2.046-.78-2.827.002L24 19.757zM24 47c12.703 0 23-10.297 23-23S36.703 1 24 1 1 11.297 1 24s10.297 23 23 23z"/>
  </g>
</svg>
