<?xml version="1.0" encoding="UTF-8" standalone="no"?>
<svg width="90px" height="92px" viewBox="0 0 90 92" version="1.1" xmlns="http://www.w3.org/2000/svg" xmlns:xlink="http://www.w3.org/1999/xlink" xmlns:sketch="http://www.bohemiancoding.com/sketch/ns">
    <!-- Generator: Sketch 3.0.4 (8053) - http://www.bohemiancoding.com/sketch -->
    <title>Oval 1 + Ralph 5</title>
    <desc>Created with Sketch.</desc>
    <defs></defs>
    <g id="Page-1" stroke="none" stroke-width="1" fill="none" fill-rule="evenodd" sketch:type="MSPage">
        <g id="Desktop-HD" sketch:type="MSArtboardGroup" transform="translate(-470.000000, -1697.000000)">
            <g id="Sans-Logotype-2-+-Oval-1-+-Ralph-5" sketch:type="MSLayerGroup" transform="translate(470.000000, 1656.000000)">
                <g id="Oval-1-+-Ralph-5" transform="translate(0.000000, 41.538158)" sketch:type="MSShapeGroup">
                    <ellipse id="Oval-1" fill="#C52D2F" cx="44.8030313" cy="44.7387514" rx="44.8030313" ry="44.7387514"></ellipse>
                    <path d="M31.5081456,48.4482214 L31.5081456,61.270394 C32.1334309,62.1075485 32.5146673,62.9191698 32.5146673,63.9324407 C32.5146673,65.1945558 31.9484045,66.3270166 31.058711,67.08213 L29.9501469,65.9656798 C30.5607025,65.5029426 30.9559144,64.7663513 30.9559144,63.9356847 C30.9559144,62.5338694 29.8290938,61.3972229 28.4392135,61.3972229 C27.0493333,61.3972229 25.9225127,62.5340787 25.9225127,63.9359986 C25.9225127,64.759654 26.3115008,65.4921642 26.9142766,65.9561571 L25.8068536,67.0721888 C24.9247324,66.317494 24.3438436,65.1919397 24.3438436,63.9359986 C24.3438436,62.9215766 24.6559369,61.9881499 25.2783178,61.2703946 L25.2783178,41.3590922 C25.3820479,40.592154 25.9698136,39.9720318 26.7270437,39.9720318 L62.9634075,39.9765315 C63.7207413,39.9765315 64.3186726,40.5920494 64.4224028,41.3590922 L64.4224028,61.2803352 C64.9410535,61.9977766 65.3568769,62.926181 65.3568769,63.9409169 C65.3568769,65.1959162 64.7852201,66.3222029 63.9029952,67.0770024 L62.7900744,65.9611801 C63.3929541,65.4970825 63.7792451,64.7645723 63.7792451,63.9409169 C63.7792451,62.5387877 62.651076,61.4021412 61.2611958,61.4021412 C59.8714193,61.4021412 58.7437688,62.5386831 58.7437688,63.9409169 C58.7437688,64.7712695 59.1386695,65.5079655 59.7491214,65.9713306 L58.6404536,67.0886179 C57.7507601,66.3338185 57.1844972,65.1970673 57.1844972,63.9349522 C57.1844972,62.9217859 57.5873095,62.1075485 58.1925749,61.270394 L58.1925749,48.553684 L56.427457,48.553684 L56.427457,75.4754412 L57.4657617,76.1667216 L57.4657617,78.3801581 L45.3180795,78.3801581 L45.3180795,76.1668262 L46.6673934,75.5020209 L46.6673934,67.1821485 L43.1371576,67.1821485 L43.1397464,75.4754412 L44.3845082,76.1667216 L44.3845082,78.3801581 L32.1311284,78.3801581 L32.1311284,76.1667216 L33.377094,75.4772202 L33.377094,48.4482214 L31.5081456,48.4482214 Z M45.1639843,18.6990579 C47.680108,18.6990579 49.9590828,19.6027477 51.3641167,20.9627303 L52.4746873,19.3675895 C50.7201601,17.7835421 48.0960528,16.7771864 45.1638805,16.7771864 C42.2239209,16.7771864 39.5937914,17.7885655 37.8394719,19.3796248 L38.9491081,20.9768586 C40.3529998,19.6089224 42.6394504,18.6990579 45.1639843,18.6990579 Z M45.2834932,14.6239243 C48.0328201,14.6239243 50.5973287,15.4245297 52.5041752,16.8790151 C52.8914628,17.1743495 53.2407485,17.4888356 53.549125,17.8190199 L54.6612531,16.2179139 C52.4963879,14.0795127 49.1010279,12.7019482 45.2834932,12.7019482 C41.3738609,12.7019482 37.907377,14.1464914 35.7516489,16.3736395 L36.8693839,17.9829086 C37.2126474,17.5924434 37.611564,17.2223858 38.0626036,16.8789104 C39.9693462,15.4245297 42.5339587,14.6239243 45.2834932,14.6239243 Z M45.1639843,10.7147724 C49.5277711,10.7147724 53.3851767,12.317239 55.6778571,14.7536956 L56.7818865,13.1679738 C54.1084597,10.5077662 49.8987573,8.79258699 45.1639843,8.79258699 C40.4211126,8.79237768 36.206011,10.5128943 33.5328957,13.180009 L34.6360944,14.7683472 C36.9269059,12.3235183 40.7914758,10.7147724 45.1639843,10.7147724 Z M54.173146,23.018036 L35.7604745,23.018036 C35.0054194,23.018036 34.4165968,23.6450199 34.4165968,24.4091009 L34.4165968,36.516347 C34.4165968,37.2757186 35.0054194,37.8789459 35.7604745,37.8789459 L54.173146,37.8789459 C54.9309008,37.8789459 55.5980115,37.2757186 55.5980115,36.516347 L55.5980115,24.4091009 C55.5980115,23.6450199 54.9309008,23.018036 54.173146,23.018036 Z M40.2758537,31.9032903 C38.9830606,31.9032903 37.9335423,30.8422004 37.9335423,29.5414522 C37.9335423,28.23432 38.9830606,27.1762651 40.2758537,27.1762651 C41.5703081,27.1762651 42.6198265,28.2342154 42.6198265,29.5414522 C42.6198265,30.8423051 41.5703081,31.9032903 40.2758537,31.9032903 L40.2758537,31.9032903 Z M49.6875662,31.9032903 C48.3901007,31.9032903 47.3388172,30.8422004 47.3388172,29.5414522 C47.3388172,28.23432 48.3901007,27.1762651 49.6875662,27.1762651 C50.9823321,27.1762651 52.0318504,28.2342154 52.0318504,29.5414522 C52.0318504,30.8423051 50.9823321,31.9032903 49.6875662,31.9032903 L49.6875662,31.9032903 Z M41.4768607,29.5414522 C41.4768607,30.2071582 40.9404725,30.7495814 40.2759576,30.7495814 C39.6163226,30.7495814 39.0782732,30.2071582 39.0782732,29.5414522 C39.0782732,28.8693623 39.6163226,28.3303927 40.2759576,28.3303927 C40.9404725,28.3303927 41.4768607,28.8693623 41.4768607,29.5414522 L41.4768607,29.5414522 Z M49.6875662,30.7495814 C49.0249201,30.7495814 48.4882205,30.2071582 48.4882205,29.5414522 C48.4882205,28.8693623 49.0249201,28.3303927 49.6875662,28.3303927 C50.3475126,28.3303927 50.8915842,28.8693623 50.8915842,29.5414522 C50.8915842,30.2071582 50.3475126,30.7495814 49.6875662,30.7495814 Z" id="Ralph-2" fill="#FFFFFF"></path>
                </g>
            </g>
        </g>
    </g>
</svg>