<svg width="143" height="139" viewBox="0 0 143 139" fill="none" xmlns="http://www.w3.org/2000/svg">
<path d="M24.7562 131.229H21.3444V123.178C21.3444 121.673 21.1034 120.577 20.6212 119.894C20.1391 119.209 19.3223 118.868 18.1751 118.868C16.8067 118.868 15.7502 119.36 15.0043 120.345V131.229H11.5939V108.616H15.0058V117.301C16.0551 116.417 17.2222 115.974 18.5083 115.974C22.6774 115.974 24.7591 118.377 24.7591 123.181V131.232L24.7562 131.229ZM27.1981 123.753C27.1981 122.667 27.3768 121.647 27.7285 120.692C28.0801 119.736 28.5835 118.912 29.2387 118.218C29.891 117.525 30.6851 116.977 31.621 116.575C32.5569 116.175 33.5992 115.973 34.7464 115.973C35.895 115.973 36.9302 116.175 37.8562 116.576C38.7821 116.98 39.572 117.532 40.2271 118.238C40.8794 118.939 41.3871 119.764 41.7501 120.709C42.1131 121.653 42.2932 122.668 42.2932 123.755C42.2932 124.839 42.1174 125.856 41.7657 126.799C41.4112 127.742 40.9092 128.567 40.2555 129.27C39.6032 129.974 38.8062 130.526 37.8703 130.928C36.9344 131.33 35.8922 131.532 34.745 131.532C33.5779 131.532 32.5328 131.33 31.6054 130.928C30.6794 130.526 29.8896 129.977 29.2373 129.285C28.5807 128.592 28.0773 127.773 27.7256 126.829C27.374 125.885 27.1967 124.859 27.1967 123.755L27.1981 123.753ZM30.7007 123.753C30.7007 125.258 31.0595 126.455 31.7742 127.34C32.4888 128.226 33.4801 128.668 34.7478 128.668C36.0169 128.668 37.0082 128.227 37.7229 127.341C38.4361 126.458 38.7935 125.263 38.7935 123.756C38.7935 122.248 38.4361 121.058 37.7229 120.182C37.0082 119.309 36.0169 118.871 34.7478 118.871C33.4801 118.871 32.4888 119.309 31.7742 120.182C31.0595 121.057 30.7021 122.248 30.7021 123.756L30.7007 123.753ZM57.7216 131.229H54.5806L54.4317 130.115C53.4249 131.059 52.2266 131.532 50.8384 131.532C46.7742 131.532 44.7408 129.189 44.7408 124.506V116.244H48.1526V124.264C48.1526 125.772 48.405 126.873 48.907 127.567C49.4104 128.263 50.2059 128.608 51.2921 128.608C52.6208 128.608 53.6277 128.147 54.3126 127.221V116.244H57.723V131.229H57.7216ZM67.0395 138.77C65.8711 138.77 64.8458 138.647 63.9595 138.406C63.0733 138.165 62.3387 137.838 61.7559 137.426C61.1717 137.014 60.7292 136.542 60.4272 136.009C60.1251 135.477 59.9734 134.909 59.9734 134.305C59.9734 132.838 60.82 131.721 62.5117 130.958C61.5645 130.433 61.0908 129.741 61.0908 128.876C61.0908 127.972 61.6155 127.269 62.662 126.766C61.0738 125.659 60.2769 124.043 60.2769 121.91C60.2769 121.068 60.4187 120.277 60.7023 119.546C60.9816 118.812 61.383 118.182 61.9076 117.66C62.4323 117.137 63.0704 116.726 63.8248 116.425C64.5792 116.123 65.4301 115.97 66.3773 115.97C67.7245 115.97 68.9014 116.294 69.9082 116.936C70.8754 116.453 71.9928 116.212 73.2605 116.212H74.0149L73.7455 118.413H72.5969C72.2537 118.413 71.8708 118.444 71.4482 118.505C72.153 119.489 72.5047 120.615 72.5047 121.882C72.5047 122.685 72.3686 123.444 72.0963 124.158C71.8269 124.873 71.427 125.501 70.9051 126.044C70.3805 126.586 69.7423 127.013 68.9865 127.326C68.2307 127.638 67.3799 127.794 66.434 127.794C65.8101 127.794 65.2259 127.733 64.6827 127.613C64.3807 127.773 64.229 127.975 64.229 128.216C64.229 128.396 64.2956 128.548 64.4275 128.668C64.5551 128.788 64.7735 128.899 65.0755 129C65.3776 129.099 65.7846 129.195 66.2979 129.284C66.8112 129.376 67.4607 129.471 68.2463 129.571C68.9099 129.67 69.5934 129.802 70.2982 129.964C71.003 130.123 71.6453 130.365 72.231 130.686C72.8152 131.008 73.2974 131.43 73.6802 131.952C74.0631 132.475 74.2758 133.148 74.3141 133.971C74.3141 135.42 73.6802 136.58 72.4139 137.455C71.1434 138.329 69.3509 138.767 67.0395 138.767V138.77ZM66.373 118.566C65.4088 118.566 64.6686 118.868 64.1552 119.47C63.6419 120.072 63.3852 120.886 63.3852 121.913C63.3852 122.935 63.6462 123.752 64.1694 124.355C64.6941 124.957 65.4371 125.258 66.4043 125.258C67.3685 125.258 68.1087 124.952 68.6207 124.34C69.134 123.725 69.3921 122.905 69.3921 121.88C69.3921 120.855 69.1297 120.045 68.6065 119.452C68.0818 118.86 67.3387 118.563 66.3716 118.563L66.373 118.566ZM67.1898 132.104L65.1053 131.803C64.4629 132.002 63.9397 132.294 63.537 132.676C63.1342 133.057 62.9329 133.51 62.9329 134.032C62.9329 134.714 63.2874 135.264 63.9893 135.675C64.6941 136.087 65.6811 136.294 66.9488 136.294C68.2165 136.294 69.2375 136.093 70.0118 135.691C70.7874 135.289 71.1746 134.768 71.1746 134.123C71.1746 133.538 70.8342 133.101 70.1493 132.81C69.463 132.519 68.476 132.284 67.1884 132.1L67.1898 132.104ZM109.26 131.532C107.712 131.532 106.382 131.039 105.276 130.055L105.155 131.229H101.986V108.616H105.398V117.269C106.383 116.403 107.672 115.972 109.262 115.972C110.349 115.972 111.336 116.173 112.223 116.575C113.108 116.978 113.862 117.526 114.486 118.219C115.11 118.915 115.592 119.739 115.935 120.69C116.278 121.647 116.449 122.667 116.449 123.753C116.449 124.838 116.283 125.855 115.952 126.798C115.619 127.74 115.141 128.565 114.517 129.268C113.893 129.973 113.137 130.525 112.253 130.927C111.365 131.329 110.369 131.53 109.26 131.53V131.532ZM108.991 118.868C107.823 118.868 106.906 119.3 106.243 120.165C105.576 121.028 105.246 122.224 105.246 123.753C105.246 125.321 105.576 126.532 106.241 127.385C106.905 128.24 107.821 128.666 108.988 128.666C110.194 128.666 111.158 128.212 111.871 127.295C112.586 126.379 112.942 125.199 112.942 123.752C112.942 122.303 112.59 121.128 111.885 120.223C111.182 119.318 110.215 118.867 108.987 118.867L108.991 118.868ZM88.9767 131.229H85.5649V123.178C85.5649 121.673 85.3238 120.577 84.8417 119.894C84.3567 119.209 83.5413 118.868 82.3941 118.868C81.0257 118.868 79.9693 119.36 79.2248 120.345V131.229H75.8116V108.616H79.2234V117.301C80.2685 116.417 81.4355 115.974 82.726 115.974C86.8908 115.974 88.9739 118.377 88.9739 123.181V131.232L88.9767 131.229ZM99.4376 128.727L99.1356 131.532H96.5406C95.8741 131.532 95.2927 131.432 94.7878 131.229C94.2844 131.031 93.8661 130.758 93.5343 130.416C93.2025 130.075 92.9557 129.672 92.7969 129.209C92.6339 128.747 92.553 128.243 92.553 127.704V119.017H90.2884L90.5919 116.244H92.5544V111.79L95.9663 111.429V116.243H99.4688V119.019H95.9663V126.136C95.9663 126.761 95.9861 127.246 96.0272 127.598C96.0669 127.949 96.169 128.206 96.3293 128.365C96.4895 128.529 96.7405 128.628 97.0837 128.668C97.424 128.71 97.899 128.729 98.5017 128.729H99.4376V128.727ZM118.271 123.753C118.271 122.667 118.447 121.647 118.8 120.692C119.151 119.736 119.655 118.912 120.308 118.218C120.965 117.525 121.759 116.977 122.695 116.575C123.631 116.175 124.673 115.973 125.82 115.973C126.969 115.973 128.004 116.175 128.93 116.576C129.856 116.98 130.646 117.532 131.298 118.238C131.955 118.939 132.461 119.764 132.826 120.709C133.187 121.653 133.369 122.668 133.369 123.755C133.369 124.839 133.193 125.856 132.84 126.799C132.488 127.742 131.985 128.567 131.331 129.27C130.679 129.974 129.882 130.526 128.946 130.928C128.01 131.33 126.969 131.532 125.822 131.532C124.655 131.532 123.61 131.33 122.682 130.928C121.756 130.526 120.966 129.977 120.311 129.285C119.659 128.592 119.156 127.773 118.804 126.829C118.449 125.885 118.275 124.859 118.275 123.755L118.271 123.753ZM121.773 123.753C121.773 125.258 122.131 126.455 122.845 127.34C123.56 128.226 124.551 128.668 125.819 128.668C127.087 128.668 128.078 128.227 128.793 127.341C129.507 126.458 129.865 125.263 129.865 123.756C129.865 122.248 129.507 121.058 128.793 120.182C128.078 119.309 127.087 118.871 125.819 118.871C124.551 118.871 123.56 119.309 122.845 120.182C122.131 121.057 121.773 122.248 121.773 123.756V123.753ZM142.967 128.727L142.665 131.532H140.07C139.404 131.532 138.822 131.432 138.318 131.229C137.816 131.031 137.396 130.758 137.065 130.416C136.734 130.075 136.487 129.672 136.328 129.209C136.165 128.747 136.084 128.243 136.084 127.704V119.017H133.82L134.122 116.244H136.086V111.79L139.497 111.429V116.243H143V119.019H139.497V126.136C139.497 126.761 139.519 127.246 139.56 127.598C139.6 127.949 139.702 128.206 139.862 128.365C140.022 128.529 140.273 128.628 140.616 128.668C140.957 128.71 141.43 128.729 142.034 128.729H142.97L142.967 128.727ZM9.15065 128.727L8.8486 131.532H6.25358C5.5871 131.532 5.0057 131.432 4.50088 131.229C3.99747 131.031 3.57915 130.758 3.24733 130.416C2.9155 130.075 2.66876 129.672 2.5071 129.209C2.34686 128.747 2.26604 128.243 2.26604 127.704V119.017H0L0.303463 116.244H2.26604V111.79L5.67785 111.429V116.243H9.18043V119.019H5.67785V126.136C5.67785 126.761 5.69771 127.246 5.73883 127.598C5.77854 127.949 5.88063 128.206 6.04087 128.365C6.20111 128.529 6.45211 128.628 6.79528 128.668C7.13561 128.71 7.61065 128.729 8.21332 128.729H9.14923" fill="#E03131"/>
<path d="M72 92C97.4051 92 118 71.4051 118 46C118 20.5949 97.4051 0 72 0C46.5949 0 26 20.5949 26 46C26 71.4051 46.5949 92 72 92Z" fill="#E03131"/>
<path fill-rule="evenodd" clip-rule="evenodd" d="M72.6085 10.6606C77.0746 10.6606 81.0223 12.3132 83.369 14.8254L84.4987 13.1904C81.7628 10.4473 77.4541 8.67896 72.6085 8.67896C67.7544 8.67896 63.4404 10.4526 60.7045 13.2027L61.8337 14.8398C64.1783 12.3196 68.1334 10.6606 72.6085 10.6606ZM80.1206 17.0159C78.1693 15.5169 75.5447 14.6909 72.7304 14.6909H72.731C69.9167 14.6909 67.2921 15.5169 65.3403 17.0159C64.8968 17.3538 64.4879 17.7352 64.1195 18.1545L62.9755 16.4954C65.1818 14.1986 68.7292 12.7098 72.731 12.7098C76.6378 12.7098 80.1126 14.1299 82.3284 16.3344L81.1903 17.9854C80.8744 17.6452 80.5171 17.321 80.1206 17.0159ZM72.6084 18.8932C75.1836 18.8932 77.5161 19.8248 78.9537 21.2268L80.0903 19.5822C78.2948 17.9493 75.6093 16.9115 72.6084 16.9115C69.5996 16.9115 66.9077 17.9541 65.1122 19.5944L66.2477 21.2417C67.6843 19.8312 70.0247 18.8932 72.6084 18.8932ZM58.6324 49.566V62.7863C59.2722 63.6497 59.6624 64.4864 59.6624 65.5311C59.6624 66.8322 59.083 68.0001 58.1728 68.7787L57.0379 67.6274C57.6882 67.1305 58.0692 66.3557 58.0673 65.5343C58.0673 64.0891 56.9138 62.917 55.491 62.917C54.0688 62.917 52.9158 64.0891 52.9158 65.5348C52.9141 66.3501 53.2892 67.1198 53.9309 67.6178L52.7976 68.7686C51.8948 67.99 51.3 66.8296 51.3 65.5348C51.3 64.4891 51.6197 63.5265 52.2564 62.7863V42.257C52.3624 41.4661 52.964 40.8268 53.739 40.8268L90.8249 40.8316C91.6005 40.8316 92.2122 41.4661 92.3188 42.257V62.7965C92.8489 63.5361 93.2751 64.4933 93.2751 65.5396C93.2726 66.7845 92.7289 67.9659 91.7871 68.7734L90.6479 67.6226C91.2888 67.1243 91.663 66.3545 91.6604 65.5396C91.6604 64.0944 90.5058 62.9223 89.083 62.9223C87.6608 62.9223 86.5067 64.0939 86.5067 65.5396C86.5067 66.396 86.9107 67.1554 87.5356 67.6332L86.4012 68.7851C85.4542 67.9739 84.9093 66.785 84.9111 65.5337C84.9111 64.4885 85.323 63.6497 85.9427 62.7863V49.6748H84.1361V77.4326L85.199 78.1451V80.4275H72.766V78.1451L74.1469 77.4598V68.8816H70.5342L70.5369 77.4326L71.8107 78.1451V80.4275H59.2701V78.1451L60.545 77.4342V49.566H58.6324ZM62.9835 23.3461H81.8286C82.6041 23.3461 83.2864 23.9924 83.2864 24.7806V37.2634C83.2864 38.0468 82.6041 38.6686 81.8286 38.6686H62.984C62.2111 38.6686 61.6084 38.0468 61.6084 37.2634V24.7806C61.6084 23.9924 62.2111 23.3461 62.9835 23.3461ZM67.6059 32.5075C66.2828 32.5075 65.2083 31.4132 65.2083 30.072C65.2083 28.7244 66.2828 27.6334 67.6059 27.6334C68.9306 27.6334 70.0046 28.7239 70.0046 30.072C70.0046 31.4132 68.9306 32.5069 67.6059 32.5069V32.5075ZM74.8344 30.072C74.8344 31.4132 75.91 32.5075 77.2379 32.5075V32.5069C78.5631 32.5069 79.6371 31.4132 79.6371 30.072C79.6371 28.7239 78.5631 27.6334 77.2379 27.6334C75.9105 27.6334 74.8344 28.7244 74.8344 30.072ZM68.8347 30.0724C68.8371 30.7576 68.2871 31.3152 67.6059 31.3181C66.9306 31.3181 66.3798 30.7582 66.3798 30.0724C66.3798 29.3791 66.9311 28.8235 67.6059 28.8235C67.9337 28.8244 68.2476 28.9568 68.4782 29.1911C68.7088 29.4255 68.8371 29.7426 68.8347 30.0724ZM76.0107 30.0724C76.0081 30.7571 76.5572 31.3146 77.2379 31.3181C77.9193 31.3143 78.4698 30.7578 78.4704 30.0724C78.4724 29.3853 77.9209 28.8264 77.2379 28.8235C76.5599 28.8235 76.0107 29.3791 76.0107 30.0724Z" fill="white"/>
</svg>
